# xmcd
#
# Track frame offsets: 
#        150
#        31243
#        57892
#        88425
#        127201
#        160950
#        198648
#        233150
#        268674
#        312924
#
# Disc length: 4703 seconds
#
# Revision: 0
# Processed by: cddbd v1.5.2PL0 Copyright (c) Steve Scherf et al.
# Submitted via: ExactAudioCopy v1.0b3
#
DISCID=91125d0a
DTITLE=Various Artist - 50 Eye-Trance Tracks - CD 2
DYEAR=1900
DGENRE=
TTITLE0=Phalanx - Symphony In Gminor (Club Mix) 
TTITLE1=4 Strings - Music Saved My Life (Original Mix)
TTITLE2=Priority Q Feat. Elles De Graaf - Mirror Of  My Memory (Icone 
TTITLE2=Remix)
TTITLE3=Klaus Goulart - Stella (Sunset Remix)
TTITLE4=Rapha - Impulse (Original Mix)
TTITLE5=Rank 1 - Airwave (Original Version)
TTITLE6=Simon Pitt - Carpe Diem (Angel Ace Remix)
TTITLE7=Setrise - Oudegracht (Original Mix)
TTITLE8=Thomas Coastline - Afterhour (Original Mix)
TTITLE9=Ron Van Den Beuken - Her Tears (Namira) (Extended)
EXTD=
EXTT0=
EXTT1=
EXTT2=
EXTT3=
EXTT4=
EXTT5=
EXTT6=
EXTT7=
EXTT8=
EXTT9=
PLAYORDER=
